<svg width="204" height="120" viewBox="0 0 204 120" fill="none" xmlns="http://www.w3.org/2000/svg">
<path d="M74 71.3037V48H78.5364L87.8009 63.0583V48H92.2735V71.3037H87.8009L78.5045 56.4046V71.3037H74Z" fill="#2C4257"/>
<path d="M94.9166 62.7718C94.9166 61.3073 95.0017 60.087 95.1721 59.1107C95.3638 58.1131 95.63 57.296 95.9708 56.6593C96.3116 56.0014 96.7908 55.5026 97.4084 55.163C98.026 54.8235 98.7076 54.59 99.453 54.4626C100.22 54.3353 101.178 54.2716 102.328 54.2716C103.095 54.2716 103.744 54.2929 104.277 54.3353C104.809 54.3565 105.342 54.4202 105.874 54.5263C106.428 54.6112 106.875 54.7492 107.216 54.9402C107.557 55.11 107.887 55.354 108.206 55.6724C108.526 55.9695 108.771 56.341 108.941 56.7867C109.133 57.2111 109.271 57.7311 109.356 58.3466C109.463 58.9409 109.516 59.6306 109.516 60.4159C109.516 61.9016 109.122 62.984 108.334 63.6632C107.546 64.3423 106.364 64.6819 104.788 64.6819H99.3891C99.3891 65.6582 99.5275 66.3904 99.8044 66.8786C100.103 67.3455 100.465 67.632 100.891 67.7381C101.338 67.8443 102.03 67.8973 102.967 67.8973C105.587 67.8973 107.663 67.7806 109.197 67.5471V70.5715C107.599 71.1658 104.703 71.4629 100.507 71.4629C99.421 71.4629 98.5159 71.3037 97.7918 70.9854C97.0889 70.667 96.5245 70.147 96.0986 69.4254C95.6726 68.7038 95.3638 67.8124 95.1721 66.7512C95.0017 65.69 94.9166 64.3636 94.9166 62.7718ZM99.3891 61.4665H103.638C104.575 61.4665 105.044 61.042 105.044 60.1931C105.044 59.1319 104.895 58.4527 104.596 58.1556C104.32 57.8372 103.649 57.6781 102.584 57.6781C101.902 57.6781 101.391 57.7099 101.05 57.7736C100.731 57.816 100.411 57.9646 100.092 58.2193C99.7937 58.4527 99.5914 58.8241 99.4849 59.3335C99.3997 59.8429 99.3678 60.5539 99.3891 61.4665Z" fill="#2C4257"/>
<path d="M110.998 54.399H115.79L119.177 66.0827L122.211 54.399H126.684L125.502 58.9515L128.313 66.0827L131.668 54.399H136.46L130.965 71.3037H125.981L123.425 65.1913L121.509 71.3037H116.429L110.998 54.399Z" fill="#2C4257"/>
<path d="M137.999 48H142.759L147.934 65.2868L152.151 48H156.943L155.314 54.0169L159.019 65.3823L163.3 48H168.028L161.607 71.3037H156.432L153.269 61.753L150.522 71.3037H145.346L137.999 48Z" fill="#2C4257"/>
<path d="M169.568 67.0059V65.4141C169.568 64.7562 169.653 64.1619 169.823 63.6313C170.015 63.1007 170.303 62.6126 170.686 62.1669C171.069 61.7212 171.58 61.3816 172.219 61.1481C172.88 60.8935 173.657 60.7661 174.552 60.7661C175.382 60.7661 176.202 60.7767 177.011 60.798C177.842 60.798 178.683 60.7873 179.535 60.7661C179.556 60.0657 179.556 59.7049 179.535 59.6837C179.535 59.238 179.482 58.8772 179.375 58.6013C179.29 58.3254 179.141 58.1131 178.928 57.9646C178.715 57.816 178.481 57.7205 178.225 57.6781C177.97 57.6356 177.65 57.6144 177.267 57.6144C175.883 57.6144 173.508 57.7311 170.143 57.9646V55.2267C172.038 54.4839 174.615 54.1018 177.874 54.0806C179.833 54.0806 181.345 54.4945 182.41 55.3222C183.475 56.1287 184.008 57.5295 184.008 59.5245V71.3037H180.462L179.535 69.4573C179.45 69.6058 179.173 69.8393 178.705 70.1577C178.257 70.4548 177.618 70.7625 176.788 71.0809C175.957 71.378 175.148 71.516 174.36 71.4948C172.826 71.4523 171.644 70.996 170.814 70.1258C169.983 69.2344 169.568 68.1945 169.568 67.0059ZM174.04 66.3692C174.04 67.0059 174.179 67.4304 174.456 67.6426C174.733 67.8336 175.127 67.9292 175.638 67.9292C175.893 67.9292 176.159 67.9079 176.436 67.8655C176.713 67.8018 176.969 67.7381 177.203 67.6745C177.459 67.5896 177.704 67.5047 177.938 67.4198C178.172 67.3137 178.385 67.2182 178.577 67.1333C178.768 67.0271 178.928 66.9422 179.056 66.8786C179.205 66.7937 179.322 66.73 179.407 66.6876C179.493 66.6239 179.535 66.5921 179.535 66.5921V63.504L175.414 63.8223C175.137 63.8436 174.903 63.9179 174.711 64.0452C174.52 64.1513 174.37 64.2893 174.264 64.4591C174.179 64.6289 174.115 64.7986 174.072 64.9684C174.051 65.1382 174.04 65.3292 174.04 65.5415V66.3692Z" fill="#2C4257"/>
<path d="M185.687 54.399H190.383L193.322 66.2419C193.364 66.4117 193.418 66.5708 193.482 66.7194C193.567 66.868 193.663 66.9847 193.769 67.0696C193.876 67.1545 193.971 67.2288 194.057 67.2924C194.142 67.3349 194.238 67.3773 194.344 67.4198C194.472 67.441 194.568 67.4516 194.632 67.4516C194.696 67.4516 194.77 67.4622 194.855 67.4835C194.962 67.4835 195.015 67.4835 195.015 67.4835L198.401 54.399H203.066L197.187 76.6521L194.855 79.8994H191.661L194.057 71.3037C191.458 71.3037 189.776 69.8711 189.009 67.0059L185.687 54.399Z" fill="#2C4257"/>
<path d="M74.0798 76.1288H75.9392L77.9609 82.8815L79.6081 76.1288H81.48L80.8435 78.4792L82.2911 82.9188L83.9633 76.1288H85.8103L83.3019 85.2319H81.2803L80.0449 81.5011L78.9717 85.2319H76.9501L74.0798 76.1288Z" fill="#2C4257"/>
<path d="M86.4989 81.8991C86.4989 81.327 86.5322 80.8503 86.5988 80.4689C86.6737 80.0793 86.7776 79.7601 86.9108 79.5114C87.0439 79.2544 87.2311 79.0596 87.4723 78.9269C87.7136 78.7943 87.9798 78.7031 88.271 78.6533C88.5705 78.6036 88.9449 78.5787 89.3941 78.5787C89.6936 78.5787 89.9474 78.587 90.1553 78.6036C90.3633 78.6119 90.5713 78.6367 90.7793 78.6782C90.9956 78.7114 91.1703 78.7652 91.3034 78.8399C91.4365 78.9062 91.5655 79.0015 91.6903 79.1259C91.8151 79.2419 91.9107 79.387 91.9773 79.5611C92.0522 79.7269 92.1062 79.9301 92.1395 80.1705C92.1811 80.4026 92.2019 80.6721 92.2019 80.9788C92.2019 81.5592 92.048 81.982 91.7402 82.2473C91.4324 82.5126 90.9706 82.6452 90.355 82.6452H88.246C88.246 83.0266 88.3001 83.3126 88.4083 83.5033C88.5247 83.6857 88.6662 83.7976 88.8325 83.8391C89.0073 83.8805 89.2776 83.9012 89.6437 83.9012C90.667 83.9012 91.4781 83.8556 92.0771 83.7644V84.9458C91.4532 85.178 90.3217 85.294 88.6828 85.294C88.2585 85.294 87.9049 85.2319 87.6221 85.1075C87.3475 84.9832 87.1271 84.78 86.9607 84.4982C86.7943 84.2163 86.6737 83.8681 86.5988 83.4535C86.5322 83.039 86.4989 82.5209 86.4989 81.8991ZM88.246 81.3892H89.9058C90.2718 81.3892 90.4548 81.2234 90.4548 80.8918C90.4548 80.4772 90.3966 80.2119 90.2801 80.0959C90.172 79.9715 89.9099 79.9093 89.4939 79.9093C89.2277 79.9093 89.0281 79.9218 88.8949 79.9466C88.7701 79.9632 88.6454 80.0213 88.5206 80.1207C88.4041 80.2119 88.3251 80.357 88.2835 80.556C88.2502 80.755 88.2377 81.0327 88.246 81.3892Z" fill="#2C4257"/>
<path d="M93.1552 85.2319V75.4697H94.8898V78.9642C95.0312 78.8896 95.1935 78.8274 95.3765 78.7777C95.5595 78.7196 95.7384 78.674 95.9131 78.6409C96.0878 78.6077 96.2584 78.5828 96.4247 78.5663C96.5995 78.5414 96.7575 78.529 96.899 78.529C97.2567 78.529 97.5645 78.587 97.8224 78.7031C98.0886 78.8108 98.3008 78.9601 98.4588 79.1508C98.6169 79.3331 98.7417 79.5736 98.8332 79.872C98.9247 80.1705 98.983 80.4814 99.0079 80.8047C99.0412 81.128 99.0578 81.5136 99.0578 81.9612C99.0578 83.0307 98.8915 83.8556 98.5587 84.436C98.2259 85.0163 97.6727 85.3065 96.899 85.3065C96.5412 85.3065 96.1793 85.2319 95.8133 85.0826C95.4472 84.9334 95.1436 84.7593 94.9023 84.5603L94.5903 85.2319H93.1552ZM94.9023 83.4162C95.3266 83.6815 95.8424 83.8142 96.4497 83.8142C96.6411 83.8142 96.7991 83.7603 96.9239 83.6525C97.0487 83.5365 97.1444 83.3375 97.2109 83.0556C97.2775 82.7654 97.3108 82.3799 97.3108 81.8991C97.3108 81.3519 97.2733 80.9291 97.1985 80.6306C97.1319 80.3322 97.0404 80.1373 96.9239 80.0461C96.8074 79.9466 96.6494 79.8969 96.4497 79.8969C96.1419 79.8969 95.8632 79.9176 95.6136 79.9591C95.364 79.9922 95.1269 80.0544 94.9023 80.1456V83.4162Z" fill="#2C4257"/>
<path d="M104.048 81.9612C104.048 81.5053 104.064 81.1156 104.098 80.7923C104.131 80.4607 104.193 80.1456 104.285 79.8472C104.376 79.5487 104.501 79.3083 104.659 79.1259C104.817 78.9435 105.025 78.7984 105.283 78.6906C105.541 78.5828 105.849 78.529 106.207 78.529C106.398 78.529 106.61 78.5455 106.843 78.5787C107.076 78.6119 107.313 78.6616 107.554 78.7279C107.804 78.7943 108.024 78.873 108.216 78.9642V75.4697H109.963V85.2319H108.515L108.216 84.5603C107.975 84.7593 107.671 84.9334 107.305 85.0826C106.939 85.2319 106.573 85.3065 106.207 85.3065C106.049 85.3065 105.899 85.294 105.757 85.2692C105.616 85.2443 105.483 85.207 105.358 85.1573C105.242 85.1075 105.129 85.0495 105.021 84.9832C104.921 84.9085 104.83 84.8215 104.747 84.722C104.663 84.6225 104.584 84.5189 104.509 84.4111C104.443 84.295 104.385 84.1707 104.335 84.038C104.285 83.8971 104.239 83.752 104.198 83.6028C104.164 83.4453 104.135 83.2794 104.11 83.1053C104.094 82.923 104.077 82.7406 104.06 82.5582C104.052 82.3675 104.048 82.1685 104.048 81.9612ZM105.795 81.8991C105.795 82.6038 105.866 83.1012 106.007 83.3914C106.148 83.6732 106.369 83.8142 106.668 83.8142C106.976 83.8142 107.259 83.781 107.517 83.7147C107.783 83.6401 108.016 83.5406 108.216 83.4162V80.1456C108.099 80.0959 107.979 80.0586 107.854 80.0337C107.737 80.0005 107.617 79.9757 107.492 79.9591C107.367 79.9342 107.234 79.9176 107.093 79.9093C106.96 79.901 106.818 79.8969 106.668 79.8969C106.544 79.8969 106.44 79.9135 106.356 79.9466C106.273 79.9715 106.194 80.0296 106.119 80.1207C106.044 80.2037 105.982 80.3197 105.932 80.4689C105.891 80.6099 105.857 80.8006 105.832 81.041C105.807 81.2731 105.795 81.5592 105.795 81.8991Z" fill="#2C4257"/>
<path d="M110.982 81.8991C110.982 81.327 111.015 80.8503 111.082 80.4689C111.157 80.0793 111.261 79.7601 111.394 79.5114C111.527 79.2544 111.714 79.0596 111.955 78.9269C112.197 78.7943 112.463 78.7031 112.754 78.6533C113.054 78.6036 113.428 78.5787 113.877 78.5787C114.177 78.5787 114.43 78.587 114.638 78.6036C114.846 78.6119 115.054 78.6367 115.262 78.6782C115.479 78.7114 115.653 78.7652 115.786 78.8399C115.92 78.9062 116.049 79.0015 116.173 79.1259C116.298 79.2419 116.394 79.387 116.46 79.5611C116.535 79.7269 116.589 79.9301 116.623 80.1705C116.664 80.4026 116.685 80.6721 116.685 80.9788C116.685 81.5592 116.531 81.982 116.223 82.2473C115.915 82.5126 115.454 82.6452 114.838 82.6452H112.729C112.729 83.0266 112.783 83.3126 112.891 83.5033C113.008 83.6857 113.149 83.7976 113.316 83.8391C113.49 83.8805 113.761 83.9012 114.127 83.9012C115.15 83.9012 115.961 83.8556 116.56 83.7644V84.9458C115.936 85.178 114.805 85.294 113.166 85.294C112.742 85.294 112.388 85.2319 112.105 85.1075C111.831 84.9832 111.61 84.78 111.444 84.4982C111.277 84.2163 111.157 83.8681 111.082 83.4535C111.015 83.039 110.982 82.5209 110.982 81.8991ZM112.729 81.3892H114.389C114.755 81.3892 114.938 81.2234 114.938 80.8918C114.938 80.4772 114.88 80.2119 114.763 80.0959C114.655 79.9715 114.393 79.9093 113.977 79.9093C113.711 79.9093 113.511 79.9218 113.378 79.9466C113.253 79.9632 113.128 80.0213 113.004 80.1207C112.887 80.2119 112.808 80.357 112.766 80.556C112.733 80.755 112.721 81.0327 112.729 81.3892Z" fill="#2C4257"/>
<path d="M117.264 78.6284H119.136L120.583 83.1924L122.068 78.6284H123.94L121.532 85.2319H119.573L117.264 78.6284Z" fill="#2C4257"/>
<path d="M124.582 81.8991C124.582 81.327 124.616 80.8503 124.682 80.4689C124.757 80.0793 124.861 79.7601 124.994 79.5114C125.127 79.2544 125.314 79.0596 125.556 78.9269C125.797 78.7943 126.063 78.7031 126.354 78.6533C126.654 78.6036 127.028 78.5787 127.477 78.5787C127.777 78.5787 128.031 78.587 128.239 78.6036C128.447 78.6119 128.655 78.6367 128.863 78.6782C129.079 78.7114 129.254 78.7652 129.387 78.8399C129.52 78.9062 129.649 79.0015 129.774 79.1259C129.898 79.2419 129.994 79.387 130.061 79.5611C130.136 79.7269 130.19 79.9301 130.223 80.1705C130.264 80.4026 130.285 80.6721 130.285 80.9788C130.285 81.5592 130.131 81.982 129.824 82.2473C129.516 82.5126 129.054 82.6452 128.438 82.6452H126.329C126.329 83.0266 126.383 83.3126 126.492 83.5033C126.608 83.6857 126.75 83.7976 126.916 83.8391C127.091 83.8805 127.361 83.9012 127.727 83.9012C128.75 83.9012 129.561 83.8556 130.16 83.7644V84.9458C129.537 85.178 128.405 85.294 126.766 85.294C126.342 85.294 125.988 85.2319 125.705 85.1075C125.431 84.9832 125.21 84.78 125.044 84.4982C124.878 84.2163 124.757 83.8681 124.682 83.4535C124.616 83.039 124.582 82.5209 124.582 81.8991ZM126.329 81.3892H127.989C128.355 81.3892 128.538 81.2234 128.538 80.8918C128.538 80.4772 128.48 80.2119 128.363 80.0959C128.255 79.9715 127.993 79.9093 127.577 79.9093C127.311 79.9093 127.111 79.9218 126.978 79.9466C126.853 79.9632 126.729 80.0213 126.604 80.1207C126.487 80.2119 126.408 80.357 126.367 80.556C126.334 80.755 126.321 81.0327 126.329 81.3892Z" fill="#2C4257"/>
<path d="M131.239 82.8815V75.4946H132.986V82.6079C132.986 83.0473 133.031 83.3541 133.123 83.5282C133.214 83.7023 133.36 83.8266 133.56 83.9012C134.059 84.0753 134.338 84.1624 134.396 84.1624V85.2319H132.948C132.674 85.2319 132.432 85.1904 132.224 85.1075C132.016 85.0246 131.838 84.8961 131.688 84.722C131.538 84.5396 131.426 84.295 131.351 83.9883C131.276 83.6815 131.239 83.3126 131.239 82.8815Z" fill="#2C4257"/>
<path d="M135.051 82.0234C135.051 81.3436 135.101 80.784 135.2 80.3446C135.3 79.9052 135.475 79.5528 135.725 79.2875C135.974 79.0222 136.282 78.8357 136.648 78.7279C137.022 78.6202 137.497 78.5663 138.071 78.5663C139.21 78.5663 139.997 78.815 140.429 79.3124C140.87 79.8099 141.091 80.7135 141.091 82.0234C141.091 83.2587 140.874 84.1126 140.442 84.5852C140.017 85.0578 139.227 85.294 138.071 85.294C137.613 85.294 137.214 85.2567 136.873 85.1821C136.54 85.0992 136.253 84.979 136.012 84.8215C135.779 84.664 135.591 84.4567 135.45 84.1997C135.309 83.9344 135.205 83.6276 135.138 83.2794C135.08 82.923 135.051 82.5043 135.051 82.0234ZM136.798 82.0234C136.798 82.4462 136.819 82.782 136.86 83.0307C136.902 83.2794 136.977 83.4701 137.085 83.6028C137.201 83.7271 137.33 83.8059 137.472 83.8391C137.613 83.8722 137.813 83.8888 138.071 83.8888C138.295 83.8888 138.466 83.8805 138.582 83.8639C138.707 83.8473 138.824 83.8059 138.932 83.7396C139.048 83.6732 139.131 83.5696 139.181 83.4287C139.239 83.2877 139.281 83.1095 139.306 82.8939C139.331 82.6701 139.343 82.3799 139.343 82.0234C139.343 81.6421 139.331 81.3353 139.306 81.1032C139.289 80.8627 139.256 80.6638 139.206 80.5063C139.156 80.3404 139.077 80.2244 138.969 80.1581C138.861 80.0834 138.74 80.0337 138.607 80.0088C138.474 79.9757 138.295 79.9591 138.071 79.9591C137.888 79.9591 137.738 79.9674 137.621 79.984C137.505 80.0005 137.393 80.0378 137.284 80.0959C137.176 80.1456 137.093 80.2161 137.035 80.3073C136.985 80.3902 136.939 80.5104 136.898 80.6679C136.856 80.8254 136.827 81.012 136.81 81.2275C136.802 81.4431 136.798 81.7084 136.798 82.0234Z" fill="#2C4257"/>
<path d="M142.133 88.5895V78.6284H143.569L143.868 79.2875C144.109 79.0969 144.413 78.9269 144.779 78.7777C145.153 78.6284 145.519 78.5538 145.877 78.5538C146.202 78.5538 146.485 78.6077 146.726 78.7155C146.975 78.8233 147.179 78.9725 147.337 79.1632C147.504 79.3539 147.641 79.5902 147.749 79.872C147.857 80.1539 147.932 80.4607 147.974 80.7923C148.015 81.1239 148.036 81.4928 148.036 81.8991C148.036 82.239 148.024 82.5457 147.999 82.8193C147.982 83.0929 147.945 83.3665 147.886 83.6401C147.828 83.9054 147.745 84.1375 147.637 84.3365C147.537 84.5355 147.408 84.7137 147.25 84.8712C147.1 85.0205 146.909 85.1365 146.676 85.2194C146.443 85.294 146.177 85.3314 145.877 85.3314C145.578 85.3314 145.241 85.294 144.866 85.2194C144.492 85.1365 144.159 85.0329 143.868 84.9085V88.5895H142.133ZM143.868 83.7147C144.301 83.8805 144.821 83.9634 145.428 83.9634C145.628 83.9634 145.786 83.9178 145.902 83.8266C146.019 83.7271 146.11 83.5282 146.177 83.2297C146.252 82.9312 146.289 82.5126 146.289 81.9737C146.289 81.2607 146.218 80.7633 146.077 80.4814C145.935 80.1912 145.719 80.0461 145.428 80.0461C144.812 80.0461 144.292 80.1788 143.868 80.4441V83.7147Z" fill="#2C4257"/>
<path d="M149.068 85.2319V78.6284H150.465L150.815 79.3373C150.84 79.3207 150.873 79.2958 150.915 79.2627C151.098 79.1383 151.235 79.0471 151.326 78.9891C151.426 78.9228 151.559 78.8481 151.726 78.7652C151.9 78.6823 152.079 78.6243 152.262 78.5911C152.445 78.5497 152.649 78.529 152.874 78.529C153.731 78.529 154.305 78.815 154.596 79.387C155.378 78.815 156.172 78.529 156.979 78.529C158.294 78.529 158.951 79.3041 158.951 80.8545V85.2319H157.204V80.8296C157.204 80.5311 157.138 80.3073 157.004 80.1581C156.88 80.0088 156.701 79.9342 156.468 79.9342C156.36 79.9342 156.256 79.9384 156.156 79.9466C156.056 79.9549 155.956 79.9674 155.856 79.984C155.765 80.0005 155.673 80.0213 155.582 80.0461C155.499 80.071 155.415 80.1042 155.332 80.1456C155.249 80.1788 155.166 80.2244 155.083 80.2824C155.008 80.3322 154.929 80.3902 154.846 80.4565C154.846 80.4648 154.846 80.4897 154.846 80.5311C154.854 80.5643 154.858 80.6016 154.858 80.643C154.858 80.6845 154.858 80.726 154.858 80.7674C154.858 80.8089 154.858 80.8337 154.858 80.842V85.2319H153.111V80.8296C153.111 80.6804 153.094 80.5477 153.061 80.4316C153.028 80.3156 152.978 80.2244 152.911 80.1581C152.845 80.0834 152.766 80.0296 152.674 79.9964C152.583 79.9549 152.483 79.9342 152.375 79.9342C152.15 79.9342 151.95 79.9549 151.776 79.9964C151.601 80.0378 151.443 80.1 151.301 80.1829C151.16 80.2575 150.998 80.3612 150.815 80.4938V85.2319H149.068Z" fill="#2C4257"/>
<path d="M159.887 81.8991C159.887 81.327 159.92 80.8503 159.987 80.4689C160.062 80.0793 160.166 79.7601 160.299 79.5114C160.432 79.2544 160.619 79.0596 160.86 78.9269C161.102 78.7943 161.368 78.7031 161.659 78.6533C161.959 78.6036 162.333 78.5787 162.782 78.5787C163.082 78.5787 163.335 78.587 163.543 78.6036C163.751 78.6119 163.959 78.6367 164.167 78.6782C164.384 78.7114 164.558 78.7652 164.692 78.8399C164.825 78.9062 164.954 79.0015 165.078 79.1259C165.203 79.2419 165.299 79.387 165.365 79.5611C165.44 79.7269 165.494 79.9301 165.528 80.1705C165.569 80.4026 165.59 80.6721 165.59 80.9788C165.59 81.5592 165.436 81.982 165.128 82.2473C164.821 82.5126 164.359 82.6452 163.743 82.6452H161.634C161.634 83.0266 161.688 83.3126 161.796 83.5033C161.913 83.6857 162.054 83.7976 162.221 83.8391C162.395 83.8805 162.666 83.9012 163.032 83.9012C164.055 83.9012 164.866 83.8556 165.465 83.7644V84.9458C164.841 85.178 163.71 85.294 162.071 85.294C161.647 85.294 161.293 85.2319 161.01 85.1075C160.736 84.9832 160.515 84.78 160.349 84.4982C160.182 84.2163 160.062 83.8681 159.987 83.4535C159.92 83.039 159.887 82.5209 159.887 81.8991ZM161.634 81.3892H163.294C163.66 81.3892 163.843 81.2234 163.843 80.8918C163.843 80.4772 163.785 80.2119 163.668 80.0959C163.56 79.9715 163.298 79.9093 162.882 79.9093C162.616 79.9093 162.416 79.9218 162.283 79.9466C162.158 79.9632 162.033 80.0213 161.909 80.1207C161.792 80.2119 161.713 80.357 161.672 80.556C161.638 80.755 161.626 81.0327 161.634 81.3892Z" fill="#2C4257"/>
<path d="M166.543 85.2319V78.6284H167.941L168.29 79.3373C168.498 79.1798 168.644 79.0761 168.727 79.0264C168.819 78.9684 168.96 78.8896 169.151 78.7901C169.343 78.6823 169.534 78.6119 169.726 78.5787C169.925 78.5373 170.146 78.5165 170.387 78.5165C171.71 78.5165 172.371 79.2875 172.371 80.8296V85.2319H170.624V80.8047C170.624 80.4897 170.557 80.2617 170.424 80.1207C170.3 79.9798 170.121 79.9093 169.888 79.9093C169.655 79.9093 169.447 79.9342 169.264 79.984C169.089 80.0254 168.927 80.0876 168.777 80.1705C168.636 80.2451 168.473 80.3487 168.29 80.4814V85.2319H166.543Z" fill="#2C4257"/>
<path d="M173.03 79.9466V78.9766L174.103 78.616L174.39 76.7755H175.85V78.616H177.335V79.9466H175.85V82.5955C175.85 82.9022 175.875 83.1509 175.925 83.3416C175.975 83.524 176.038 83.6525 176.112 83.7271C176.187 83.7935 176.287 83.8515 176.412 83.9012C176.911 84.0753 177.19 84.1624 177.248 84.1624V85.2319H175.726C175.21 85.2319 174.81 85.0495 174.528 84.6847C174.245 84.3116 174.103 83.7064 174.103 82.8691V79.9466H173.03Z" fill="#2C4257"/>
<path d="M93.7208 0L2.73637 63.3927L72.514 28.0478L93.7208 0Z" fill="url(#paint0_linear_606_255)"/>
<path d="M2.50834 71.6018L56.7797 119.032L49.0267 95.7731L2.50834 71.6018Z" fill="url(#paint1_linear_606_255)"/>
<path d="M40.8176 70.6897L47.6585 92.1246L0 66.8131L68.8654 32.6085L40.8176 70.6897Z" fill="url(#paint2_linear_606_255)"/>
<defs>
<linearGradient id="paint0_linear_606_255" x1="-7.7256" y1="67.9533" x2="58.3808" y2="73.9169" gradientUnits="userSpaceOnUse">
<stop stop-color="#496FF5"/>
<stop offset="1" stop-color="#4C85DB"/>
</linearGradient>
<linearGradient id="paint1_linear_606_255" x1="-7.7256" y1="67.9533" x2="58.3808" y2="73.9169" gradientUnits="userSpaceOnUse">
<stop stop-color="#496FF5"/>
<stop offset="1" stop-color="#4C85DB"/>
</linearGradient>
<linearGradient id="paint2_linear_606_255" x1="-5.67672" y1="66.5851" x2="42.4473" y2="72.9651" gradientUnits="userSpaceOnUse">
<stop stop-color="#496FF5"/>
<stop offset="1" stop-color="#4C85DB"/>
</linearGradient>
</defs>
</svg>
